<?xml version="1.0" standalone="no"?>
<!DOCTYPE svg PUBLIC "-//W3C//DTD SVG 20010904//EN"
 "http://www.w3.org/TR/2001/REC-SVG-20010904/DTD/svg10.dtd">
<svg version="1.0" xmlns="http://www.w3.org/2000/svg"
 width="1024.000000pt" height="1024.000000pt" viewBox="0 0 1024.000000 1024.000000"
 preserveAspectRatio="xMidYMid meet">

<g transform="translate(0.000000,1024.000000) scale(0.100000,-0.100000)"
fill="#000000" stroke="none">
<path d="M6740 9369 c-157 -66 -393 -164 -525 -219 -248 -103 -547 -227 -885
-370 -259 -109 -369 -155 -465 -195 -347 -143 -567 -235 -1095 -457 -872 -367
-860 -362 -860 -368 0 -10 916 -390 940 -390 7 0 380 157 829 349 449 192 940
402 1091 466 151 65 550 234 885 377 336 143 727 310 870 370 143 61 264 114
269 118 4 5 -45 39 -110 78 -363 213 -627 362 -642 361 -9 0 -145 -54 -302
-120z"/>
<path d="M8120 8453 c-94 -40 -481 -202 -695 -291 -132 -55 -366 -153 -520
-217 -154 -65 -377 -158 -495 -207 -215 -90 -986 -411 -1090 -453 -153 -63
-424 -177 -490 -208 l-75 -34 45 -20 c25 -12 185 -78 355 -148 171 -70 358
-147 416 -172 l107 -44 258 112 c143 61 381 163 529 226 259 111 470 201 1313
563 l382 164 0 373 c0 205 -1 373 -2 372 -2 0 -19 -7 -38 -16z"/>
<path d="M2040 7038 l0 -373 333 -132 c182 -73 454 -180 602 -239 149 -58 412
-162 585 -231 173 -68 407 -161 520 -205 113 -45 513 -205 890 -356 377 -151
753 -301 835 -334 346 -137 595 -236 1440 -574 490 -196 896 -358 903 -361 9
-4 12 74 12 369 l0 374 -42 16 c-24 9 -146 58 -273 108 -349 138 -561 221
-890 350 -404 158 -993 392 -2405 955 -652 260 -1468 586 -1815 724 -346 138
-641 257 -655 263 -14 7 -28 14 -32 16 -5 2 -8 -165 -8 -370z"/>
<path d="M2040 5511 l0 -367 123 -49 c340 -133 2035 -809 2792 -1113 1792
-719 3198 -1282 3202 -1282 1 0 3 164 3 365 l0 365 -22 10 c-13 5 -313 125
-668 266 -968 384 -2295 914 -3947 1577 l-1483 595 0 -367z"/>
<path d="M4180 3415 c-146 -62 -456 -194 -690 -293 -234 -99 -589 -251 -790
-337 -201 -86 -431 -184 -512 -218 l-147 -62 -1 -371 0 -372 243 103 c133 57
397 169 587 250 190 81 444 189 565 240 121 51 324 136 450 189 407 172 991
421 1342 574 l112 48 -212 87 c-117 47 -306 125 -422 172 -115 48 -221 90
-235 94 -21 7 -78 -14 -290 -104z"/>
<path d="M5830 2604 c-239 -102 -507 -216 -595 -254 -162 -70 -499 -213 -1095
-465 -179 -76 -422 -179 -540 -230 -118 -51 -429 -183 -690 -295 -553 -235
-774 -330 -779 -335 -8 -9 696 -455 718 -455 12 0 525 215 1181 495 602 257
1767 755 1969 842 96 41 355 151 575 244 517 219 616 263 616 270 0 3 -89 41
-197 84 -109 43 -312 125 -451 182 -140 56 -259 103 -265 103 -7 -1 -208 -84
-447 -186z"/>
</g>
</svg>
