<svg xmlns="http://www.w3.org/2000/svg" width="366" height="479" viewBox="0 0 366 479" version="1.1"><path d="" stroke="none" fill="#ff0404" fill-rule="evenodd"/><path d="M 264.500 44.875 C 241.400 55.207, 184.813 80.443, 138.750 100.956 L 55 138.251 55 151.965 L 55 165.679 57.750 166.939 C 70.506 172.786, 307.137 278, 307.529 278 C 307.811 278, 307.920 268.979, 307.771 257.953 L 307.500 237.905 209.252 195.203 C 155.216 171.716, 111.004 152.275, 111.004 152 C 111.004 151.725, 155.216 132.284, 209.252 108.797 L 307.500 66.095 307.771 46.047 C 307.920 35.021, 307.695 26.020, 307.271 26.045 C 306.847 26.069, 287.600 34.543, 264.500 44.875 M 53.229 219.047 L 53.500 239.095 151.748 281.797 C 205.784 305.284, 249.996 324.725, 249.996 325 C 249.996 325.275, 205.784 344.716, 151.748 368.203 L 53.500 410.905 53.229 430.953 C 53.080 441.979, 53.190 451, 53.472 451 C 53.862 451, 289.707 346.132, 303.250 339.937 L 306 338.679 306 325 L 306 311.321 303.250 310.061 C 290.494 304.214, 53.863 199, 53.471 199 C 53.189 199, 53.080 208.021, 53.229 219.047" stroke="none" fill="#fc0404" fill-rule="evenodd"/></svg>