<?xml version="1.0" standalone="no"?>
<!DOCTYPE svg PUBLIC "-//W3C//DTD SVG 20010904//EN"
 "http://www.w3.org/TR/2001/REC-SVG-20010904/DTD/svg10.dtd">
<svg version="1.0" xmlns="http://www.w3.org/2000/svg"
 width="1920.000000pt" height="1920.000000pt" viewBox="0 0 1920.000000 1920.000000"
 preserveAspectRatio="xMidYMid meet">

<g transform="translate(0.000000,1920.000000) scale(0.100000,-0.100000)"
fill="#000000" stroke="none">
<path d="M1896 15520 c-245 -39 -501 -178 -646 -352 -114 -137 -179 -255 -224
-409 -132 -456 54 -944 457 -1197 419 -263 967 -202 1318 148 142 142 237 312
289 518 l11 42 765 0 c634 0 770 -2 797 -14 18 -8 297 -280 655 -638 l622
-623 -236 -235 c-130 -130 -245 -253 -256 -275 -26 -50 -27 -128 -3 -175 10
-19 145 -164 301 -321 l285 -285 -96 -186 c-136 -265 -211 -448 -291 -713
l-42 -140 -418 -5 c-282 -3 -427 -9 -444 -16 -35 -16 -75 -55 -97 -95 -16 -31
-18 -66 -21 -387 l-3 -352 -726 2 -725 3 -18 67 c-108 417 -454 726 -882 788
-103 15 -293 8 -388 -15 -317 -76 -582 -289 -721 -580 -59 -123 -85 -217 -100
-356 -22 -197 13 -384 106 -574 190 -386 582 -616 1013 -592 458 25 848 341
967 782 l22 80 726 3 727 2 0 -332 c0 -202 4 -348 11 -371 5 -21 24 -53 41
-73 62 -71 47 -68 512 -74 l418 -5 42 -140 c77 -258 161 -461 302 -734 l85
-165 -285 -285 c-156 -158 -291 -299 -299 -316 -24 -49 -29 -89 -16 -141 11
-45 30 -68 263 -302 l250 -252 -230 -233 c-126 -127 -412 -417 -634 -643 -332
-336 -411 -412 -439 -417 -18 -4 -373 -7 -787 -7 l-753 0 -11 43 c-6 23 -22
76 -37 117 -145 423 -551 710 -1003 710 -709 0 -1221 -679 -1024 -1359 105
-361 392 -640 759 -738 89 -23 119 -26 265 -26 148 -1 175 2 265 26 372 100
673 399 764 760 l19 72 813 5 c880 6 838 3 954 63 66 34 57 25 874 855 l485
493 240 -240 c249 -248 279 -271 354 -271 78 0 123 35 416 329 l279 279 81
-45 c260 -145 630 -296 899 -368 l67 -18 0 -415 c0 -398 1 -418 20 -458 12
-24 39 -54 62 -70 l41 -29 917 0 916 0 36 24 c19 13 46 40 59 59 l24 36 5 425
5 426 60 18 c346 104 628 220 901 370 l82 45 278 -279 c293 -294 338 -329 416
-329 75 0 105 23 354 271 l240 240 630 -641 c378 -385 652 -656 687 -680 31
-21 83 -49 115 -62 l57 -23 819 -5 818 -5 19 -72 c92 -362 392 -660 767 -760
85 -23 117 -26 262 -26 148 -1 175 2 265 26 396 106 692 418 781 823 22 103
23 321 0 421 -65 293 -234 537 -479 691 -419 263 -967 202 -1318 -148 -142
-142 -237 -312 -289 -517 l-11 -43 -753 0 c-414 0 -769 3 -787 7 -28 5 -107
81 -439 417 -222 226 -508 516 -634 643 l-230 233 250 252 c233 234 252 257
263 302 13 52 8 92 -16 141 -8 17 -143 159 -300 316 l-284 285 85 165 c142
275 214 449 297 719 l47 155 419 5 c457 5 445 4 505 67 56 59 58 72 58 443 l0
340 726 -2 726 -3 18 -67 c170 -652 901 -986 1504 -687 249 124 450 353 536
609 92 279 73 555 -55 815 -142 287 -385 483 -703 566 -100 27 -292 36 -403
20 -419 -62 -772 -376 -877 -781 l-19 -75 -726 -3 -726 -2 -3 357 c-3 357 -3
358 -27 396 -13 21 -42 50 -64 65 l-41 27 -424 5 -424 5 -33 115 c-73 255
-196 553 -327 794 l-70 129 285 286 c157 157 292 300 300 316 24 48 30 98 17
146 -10 38 -43 75 -256 289 -134 135 -244 250 -244 255 0 18 1244 1254 1273
1265 19 6 285 10 792 10 l764 0 11 -42 c52 -206 147 -376 289 -518 351 -350
899 -411 1318 -148 402 253 589 741 457 1195 -33 113 -73 199 -141 301 -141
213 -365 371 -621 439 -86 23 -116 26 -262 26 -146 0 -176 -3 -262 -26 -375
-100 -675 -398 -767 -760 l-19 -72 -818 -5 -819 -5 -60 -24 c-33 -13 -78 -35
-100 -49 -22 -13 -329 -313 -683 -665 l-642 -642 -243 242 c-133 132 -256 248
-274 257 -44 22 -118 20 -167 -4 -26 -12 -147 -125 -325 -304 l-284 -284 -60
35 c-95 56 -392 197 -517 246 -93 36 -303 106 -440 146 l-25 8 -5 424 c-5 453
-6 456 -56 500 -58 51 -15 49 -980 49 -894 0 -898 0 -942 -21 -26 -13 -54 -38
-70 -62 l-27 -41 -3 -426 -3 -426 -52 -14 c-253 -64 -674 -236 -912 -373 l-80
-46 -290 289 c-301 300 -326 320 -405 320 -78 0 -106 -21 -357 -273 l-243
-242 -647 646 c-397 395 -665 656 -693 671 -117 66 -62 62 -964 68 l-818 5
-19 72 c-92 363 -396 664 -767 759 -109 28 -313 40 -416 24z m313 -406 c285
-70 491 -320 508 -614 17 -306 -174 -580 -472 -676 -101 -33 -254 -38 -355
-11 -479 128 -667 686 -359 1073 85 107 224 196 355 228 82 20 243 20 323 0z
m15100 1 c372 -88 600 -498 477 -860 -77 -224 -256 -390 -486 -446 -70 -17
-228 -17 -300 0 -316 77 -535 369 -517 691 17 306 233 554 542 623 48 11 225
6 284 -8z m-7059 -1320 c5 -422 5 -420 54 -473 32 -36 61 -48 197 -82 357 -90
717 -239 1024 -424 60 -37 127 -71 148 -77 42 -11 98 -5 135 15 13 7 147 136
298 286 l274 275 455 -455 c250 -250 455 -459 455 -465 0 -5 -123 -133 -274
-285 -151 -151 -280 -288 -285 -303 -6 -16 -11 -52 -11 -80 0 -47 8 -65 76
-182 200 -340 338 -669 424 -1015 17 -69 36 -137 41 -152 16 -39 81 -95 126
-107 24 -7 180 -11 416 -11 l377 0 0 -644 0 -645 -397 -3 c-352 -3 -402 -5
-429 -20 -44 -24 -92 -82 -103 -125 -5 -21 -23 -92 -40 -158 -80 -317 -226
-665 -411 -975 -73 -123 -80 -140 -80 -188 0 -29 6 -67 14 -85 7 -18 135 -153
285 -302 149 -148 271 -275 271 -280 0 -6 -205 -215 -455 -465 l-455 -455
-282 282 c-364 362 -347 356 -577 215 -293 -178 -649 -326 -1001 -417 -156
-40 -172 -46 -208 -79 -57 -51 -57 -49 -62 -481 l-5 -400 -645 0 -645 0 -5
400 c-3 270 -9 408 -16 425 -13 28 -58 72 -91 89 -12 6 -84 27 -160 46 -361
93 -707 238 -1024 431 -124 75 -184 89 -252 57 -23 -11 -146 -126 -313 -293
l-274 -275 -455 455 c-250 250 -455 459 -455 465 0 5 126 135 279 290 242 243
280 285 286 318 14 76 1 121 -73 245 -199 333 -330 647 -422 1009 -21 84 -43
161 -49 171 -18 33 -79 80 -118 91 -23 7 -183 11 -415 11 l-378 0 0 644 0 645
398 3 c434 3 425 2 484 65 33 34 39 52 72 187 83 342 236 709 433 1038 69 115
82 160 68 235 -6 33 -44 75 -286 318 -153 155 -279 285 -279 290 0 6 205 215
455 465 l455 455 282 -282 c250 -249 288 -283 328 -293 69 -18 113 -5 237 70
309 187 668 338 1011 424 153 38 185 51 218 88 54 59 54 57 54 476 0 214 3
392 7 395 3 4 295 6 647 5 l641 -3 5 -400z m-7965 -3531 c137 -35 278 -127
361 -237 159 -210 186 -470 74 -702 -115 -236 -341 -377 -606 -377 -285 0
-522 169 -627 446 -29 76 -31 90 -31 216 0 120 3 144 27 215 33 99 109 218
181 282 176 157 398 213 621 157z m14964 0 c129 -33 273 -126 356 -232 196
-248 192 -600 -11 -845 -125 -152 -310 -239 -508 -239 -265 0 -491 141 -606
377 -112 232 -85 492 74 702 157 207 436 303 695 237z m-15000 -4889 c278 -88
471 -351 471 -640 0 -305 -220 -582 -516 -651 -434 -100 -844 241 -821 686 23
438 450 737 866 605z m15067 10 c286 -74 486 -320 501 -615 20 -385 -281 -701
-667 -701 -264 0 -491 144 -606 386 -168 351 11 777 383 912 124 45 259 51
389 18z"/>
<path d="M9445 12054 c-160 -16 -242 -27 -325 -44 -465 -95 -876 -312 -1219
-645 -391 -380 -627 -836 -718 -1390 -23 -138 -25 -550 -5 -690 83 -556 330
-1040 728 -1425 377 -364 832 -586 1371 -667 145 -21 488 -22 638 0 534 76
998 300 1377 666 392 378 634 843 725 1396 22 137 25 552 5 685 -73 471 -242
860 -527 1215 -96 119 -296 312 -420 406 -348 261 -750 425 -1175 479 -91 11
-389 21 -455 14z m412 -409 c470 -62 884 -270 1214 -612 302 -314 486 -685
555 -1123 23 -145 23 -438 0 -585 -34 -216 -90 -399 -180 -590 -336 -708
-1060 -1165 -1846 -1165 -937 0 -1755 639 -1984 1549 -80 315 -80 680 -2 990
68 267 188 519 353 739 75 99 247 277 343 355 297 240 681 403 1053 446 122
14 368 12 494 -4z"/>
<path d="M10495 10444 c-16 -9 -297 -282 -622 -607 l-593 -592 -282 281 c-259
257 -287 282 -330 292 -49 12 -96 8 -138 -14 -57 -29 -110 -111 -110 -171 0
-85 5 -91 378 -466 231 -231 371 -365 398 -377 52 -26 124 -26 172 -1 56 29
1378 1357 1397 1403 33 80 5 174 -68 232 -32 26 -48 31 -105 33 -47 2 -76 -1
-97 -13z"/>
</g>
</svg>
