<svg xmlns="http://www.w3.org/2000/svg" width="1024" height="1024" viewBox="0 0 1024 1024">
<g>
<path d="M 262.41 953.65 C231.95,934.70 214.00,922.97 214.00,922.02 C214.00,921.08 228.18,914.67 261.50,900.55 C275.25,894.73 288.98,888.86 292.00,887.52 C300.65,883.67 320.33,875.24 334.00,869.52 C340.88,866.65 355.95,860.22 367.50,855.24 C379.05,850.27 400.20,841.25 414.50,835.20 C478.21,808.26 508.52,795.37 522.00,789.49 C529.97,786.02 545.05,779.58 555.50,775.20 C565.95,770.81 579.22,765.20 585.00,762.72 C616.56,749.19 626.77,745.00 628.20,745.00 C629.07,745.00 636.91,747.97 645.64,751.61 C654.36,755.24 674.55,763.40 690.50,769.73 C706.45,776.06 719.68,781.40 719.90,781.61 C720.52,782.17 709.20,787.16 663.93,806.31 C641.14,815.95 586.28,839.34 542.00,858.30 C497.73,877.25 444.85,899.83 424.50,908.48 C404.15,917.13 380.98,927.05 373.00,930.52 C365.02,933.98 342.75,943.44 323.50,951.53 C304.25,959.62 287.78,966.61 286.91,967.07 C285.74,967.68 279.09,964.03 262.41,953.65 ZM 204.24 810.91 L 204.50 773.59 L 252.50 753.03 C278.90,741.73 302.08,731.74 304.00,730.84 C305.92,729.94 314.70,726.19 323.50,722.50 C332.30,718.82 348.27,712.07 359.00,707.51 C369.73,702.94 389.30,694.64 402.50,689.05 C415.70,683.46 430.67,677.08 435.78,674.88 L 445.05 670.86 L 460.28 677.07 C468.65,680.49 480.67,685.42 487.00,688.04 C493.33,690.65 505.80,695.74 514.73,699.34 C523.66,702.93 531.68,706.28 532.56,706.78 C533.98,707.57 472.88,734.32 395.00,767.02 C379.24,773.63 356.04,783.45 320.50,798.53 C257.93,825.08 236.04,834.40 221.50,840.68 C213.25,844.23 205.93,847.39 205.24,847.69 C204.23,848.11 204.03,840.65 204.24,810.91 ZM 814.00 753.29 C813.17,752.98 793.83,745.34 771.00,736.30 C728.37,719.41 714.35,713.81 619.00,675.50 C588.47,663.24 542.58,644.81 517.00,634.55 C491.42,624.28 466.23,614.14 461.00,612.00 C439.45,603.19 235.46,522.02 206.75,510.83 L 204.00 509.76 L 204.00 473.38 C204.00,443.22 204.23,437.00 205.37,437.00 C206.13,437.00 229.86,446.29 258.12,457.64 C286.38,468.99 316.02,480.87 324.00,484.03 C331.98,487.18 365.05,500.44 397.50,513.49 C481.55,547.28 700.98,634.95 763.23,659.61 L 815.96 680.50 L 815.98 717.25 C815.99,737.46 815.89,753.96 815.75,753.92 C815.61,753.88 814.83,753.59 814.00,753.29 ZM 811.50 599.47 C808.08,597.88 633.13,528.13 596.00,513.55 C582.53,508.26 570.38,503.45 569.00,502.86 C567.62,502.27 547.15,494.01 523.50,484.50 C499.85,475.00 479.38,466.74 478.00,466.16 C475.62,465.14 450.20,455.06 373.00,424.54 C354.02,417.04 337.08,410.25 335.35,409.45 C333.62,408.65 331.96,408.00 331.67,408.00 C331.04,408.00 275.33,386.04 233.26,369.20 L 204.01 357.50 L 204.01 320.63 L 204.00 283.77 L 206.25 284.24 C207.49,284.50 277.80,312.41 362.50,346.27 C447.20,380.13 532.03,413.99 551.00,421.51 C632.55,453.86 691.86,477.30 737.00,495.02 C758.17,503.34 784.60,513.75 795.73,518.15 L 815.95 526.15 L 816.23 563.58 C816.41,588.07 816.15,600.98 815.50,600.94 C814.95,600.90 813.15,600.24 811.50,599.47 ZM 551.00 351.31 C542.47,347.74 529.65,342.43 522.50,339.51 C491.65,326.92 486.73,324.89 482.73,323.10 C480.40,322.07 477.61,320.92 476.52,320.55 C474.13,319.75 473.75,319.93 508.50,305.34 C558.04,284.53 568.81,280.04 588.50,271.96 C599.50,267.45 616.83,260.25 627.00,255.96 C637.17,251.67 650.45,246.15 656.50,243.69 C662.55,241.24 674.92,236.07 684.00,232.21 C693.08,228.35 714.00,219.57 730.50,212.70 C747.00,205.84 768.38,196.94 778.00,192.94 C787.62,188.93 800.11,183.73 805.75,181.38 L 816.00 177.09 L 816.00 214.39 L 816.00 251.68 L 813.25 252.95 C811.74,253.65 798.35,259.39 783.50,265.71 C768.65,272.03 746.38,281.61 734.00,287.00 C721.62,292.38 690.35,305.82 664.50,316.86 C638.65,327.89 606.49,341.66 593.04,347.46 C579.59,353.26 568.11,357.96 567.54,357.90 C566.97,357.85 559.53,354.89 551.00,351.31 ZM 380.50 285.99 C375.58,283.66 369.43,281.10 347.00,272.01 C337.38,268.12 327.02,263.89 324.00,262.61 C320.98,261.34 312.31,257.69 304.75,254.50 C297.19,251.31 291.01,248.44 291.02,248.10 C291.04,247.47 306.57,240.81 376.50,211.42 C437.68,185.72 446.39,182.08 468.50,172.99 C479.50,168.47 490.98,163.73 494.00,162.44 C497.02,161.16 507.15,156.91 516.50,153.00 C525.85,149.09 534.40,145.49 535.50,145.00 C539.87,143.04 589.08,122.44 619.50,109.84 C642.95,100.12 654.88,95.14 666.00,90.45 C669.03,89.18 678.24,85.37 686.49,81.98 C694.73,78.60 702.15,75.45 702.99,74.99 C704.00,74.42 706.30,75.15 710.00,77.23 C723.79,84.97 779.60,117.36 780.41,118.10 C780.93,118.57 780.08,119.40 778.46,120.01 C775.43,121.17 720.79,144.38 675.00,163.98 C659.88,170.45 637.38,180.05 625.00,185.30 C612.62,190.56 592.83,199.00 581.00,204.07 C569.17,209.13 553.88,215.63 547.00,218.51 C527.79,226.55 394.06,283.77 389.22,286.01 C386.87,287.11 384.85,287.97 384.72,287.94 C384.60,287.90 382.70,287.03 380.50,285.99 Z" fill="rgba(243,39,50,1)"/>
</g>
</svg>